<!-- Generator: Adobe Illustrator 25.0.1, SVG Export Plug-In  -->
<svg version="1.1" xmlns="http://www.w3.org/2000/svg" xmlns:xlink="http://www.w3.org/1999/xlink" x="0px" y="0px"
	 width="149.74px" height="132.38px" viewBox="0 0 149.74 132.38"
	 style="overflow:visible;enable-background:new 0 0 149.74 132.38;" xml:space="preserve">
<style type="text/css">
	.st0{opacity:0.9;}
	.st1{fill:none;stroke:#3f8efb;stroke-width:0.8;stroke-miterlimit:10;}
</style>
<defs>
</defs>
<g class="st0">

		<ellipse transform="matrix(0.0721 -0.9974 0.9974 0.0721 -10.8035 149.3573)" class="st1" cx="74.87" cy="80.48" rx="34.37" ry="74.62"/>

		<ellipse transform="matrix(0.029 -0.9996 0.9996 0.029 -8.1253 151.2435)" class="st1" cx="73.79" cy="79.8" rx="33.53" ry="72.81"/>

		<ellipse transform="matrix(0.9999 -0.0162 0.0162 0.9999 -1.2703 1.1864)" class="st1" cx="72.71" cy="79.12" rx="71.13" ry="32.76"/>

		<ellipse transform="matrix(0.998 -0.0634 0.0634 0.998 -4.8313 4.7011)" class="st1" cx="71.63" cy="78.44" rx="69.61" ry="32.06"/>

		<ellipse transform="matrix(0.9936 -0.1125 0.1125 0.9936 -8.3021 8.432)" class="st1" cx="70.55" cy="77.76" rx="68.26" ry="31.43"/>

		<ellipse transform="matrix(0.9866 -0.1632 0.1632 0.9866 -11.6478 12.3693)" class="st1" cx="69.46" cy="77.08" rx="67.07" ry="30.89"/>

		<ellipse transform="matrix(0.9766 -0.2151 0.2151 0.9766 -14.8325 16.4969)" class="st1" cx="68.38" cy="76.4" rx="66.07" ry="30.42"/>

		<ellipse transform="matrix(0.9635 -0.2678 0.2678 0.9635 -17.8202 20.7903)" class="st1" cx="67.3" cy="75.72" rx="65.25" ry="30.05"/>

		<ellipse transform="matrix(0.9471 -0.3209 0.3209 0.9471 -20.5767 25.2171)" class="st1" cx="66.22" cy="75.04" rx="64.63" ry="29.76"/>

		<ellipse transform="matrix(0.9275 -0.3738 0.3738 0.9275 -23.0724 29.7384)" class="st1" cx="65.14" cy="74.36" rx="64.22" ry="29.57"/>

		<ellipse transform="matrix(0.9047 -0.426 0.426 0.9047 -25.2833 34.309)" class="st1" cx="64.06" cy="73.68" rx="64.01" ry="29.48"/>
	<ellipse transform="matrix(0.8789 -0.477 0.477 0.8789 -27.1927 38.8794)" class="st1" cx="62.98" cy="73" rx="64.01" ry="29.48"/>

		<ellipse transform="matrix(0.8503 -0.5263 0.5263 0.8503 -28.7926 43.3984)" class="st1" cx="61.9" cy="72.32" rx="64.22" ry="29.57"/>

		<ellipse transform="matrix(0.8193 -0.5734 0.5734 0.8193 -30.084 47.8156)" class="st1" cx="60.82" cy="71.64" rx="64.64" ry="29.76"/>

		<ellipse transform="matrix(0.7862 -0.618 0.618 0.7862 -31.0762 52.0831)" class="st1" cx="59.74" cy="70.95" rx="65.26" ry="30.05"/>

		<ellipse transform="matrix(0.7515 -0.6597 0.6597 0.7515 -31.7863 56.1585)" class="st1" cx="58.65" cy="70.27" rx="66.08" ry="30.42"/>

		<ellipse transform="matrix(0.7156 -0.6985 0.6985 0.7156 -32.2375 60.0057)" class="st1" cx="57.57" cy="69.59" rx="67.08" ry="30.88"/>

		<ellipse transform="matrix(0.679 -0.7342 0.7342 0.679 -32.4574 63.5967)" class="st1" cx="56.49" cy="68.91" rx="68.27" ry="31.43"/>

		<ellipse transform="matrix(0.642 -0.7667 0.7667 0.642 -32.4763 66.9106)" class="st1" cx="55.41" cy="68.23" rx="69.63" ry="32.05"/>

		<ellipse transform="matrix(0.6051 -0.7962 0.7962 0.6051 -32.3255 69.935)" class="st1" cx="54.33" cy="67.55" rx="71.15" ry="32.75"/>

		<ellipse transform="matrix(0.5685 -0.8227 0.8227 0.5685 -32.0358 72.6641)" class="st1" cx="53.25" cy="66.87" rx="72.82" ry="33.52"/>

		<ellipse transform="matrix(0.5325 -0.8464 0.8464 0.5325 -31.6364 75.0978)" class="st1" cx="52.17" cy="66.19" rx="74.64" ry="34.36"/>
</g>
</svg>
